<?xml version="1.0" standalone="no"?>
<!DOCTYPE svg PUBLIC "-//W3C//DTD SVG 20010904//EN"
 "http://www.w3.org/TR/2001/REC-SVG-20010904/DTD/svg10.dtd">
<svg version="1.0" xmlns="http://www.w3.org/2000/svg"
 width="1044.000000pt" height="1280.000000pt" viewBox="0 0 1044.000000 1280.000000"
 preserveAspectRatio="xMidYMid meet">
<g transform="translate(0.000000,1280.000000) scale(0.100000,-0.100000)"
   fill="#222" stroke="none">
<path d="M4640 12793 c-401 -30 -758 -109 -1095 -243 -171 -68 -228 -97 -341
-177 -106 -75 -221 -149 -484 -313 -234 -146 -439 -285 -560 -381 -140 -110
-307 -274 -350 -343 -116 -186 -280 -424 -450 -651 -301 -402 -420 -589 -521
-815 -25 -58 -64 -141 -86 -185 -193 -384 -300 -864 -333 -1495 -13 -257 -13
-1259 0 -1390 24 -228 -23 -434 -193 -850 -100 -245 -153 -401 -178 -524 -25
-122 -35 -352 -45 -1061 -10 -773 17 -1274 96 -1728 l19 -109 68 -76 c252
-282 549 -575 1202 -1188 306 -287 371 -345 461 -413 370 -281 810 -453 1655
-645 320 -73 366 -82 557 -110 777 -117 1593 -125 2668 -26 118 11 247 22 285
26 595 46 1200 294 1710 699 243 194 525 487 718 749 85 115 202 350 301 606
156 404 200 497 332 697 162 246 242 435 300 711 74 355 78 592 29 1592 -26
514 -66 726 -284 1483 l-100 347 -26 323 c-59 736 -113 1117 -209 1457 -20 69
-52 184 -71 255 -83 303 -163 517 -289 780 -216 449 -507 871 -911 1323 -184
207 -477 504 -584 594 -343 287 -733 493 -1291 683 -85 29 -200 71 -255 95
-482 206 -1024 314 -1545 308 -85 -1 -175 -3 -200 -5z m1979 -1372 c205 -69
328 -152 707 -476 77 -66 190 -158 250 -205 514 -399 731 -703 774 -1086 6
-55 8 -121 5 -149 -7 -58 15 -228 45 -345 60 -237 184 -505 400 -865 342 -570
440 -772 511 -1054 35 -139 36 -163 3 -228 -79 -160 -227 -181 -383 -55 -53
43 -116 138 -126 188 -24 128 108 165 353 98 47 -13 17 19 -125 134 -329 265
-421 368 -458 507 -29 114 -133 273 -257 396 -326 323 -904 494 -1668 494
-285 -1 -362 -9 -545 -61 -261 -74 -474 -232 -589 -438 -31 -56 -58 -91 -73
-97 -58 -22 -205 -32 -300 -20 -183 22 -299 70 -823 343 -354 184 -526 219
-845 170 -77 -12 -255 -33 -395 -47 -658 -66 -894 -144 -1156 -386 -51 -46
-110 -98 -131 -116 -76 -60 -141 -184 -183 -350 -11 -43 -36 -152 -56 -243
-20 -91 -50 -198 -67 -239 -55 -134 -147 -201 -274 -201 -65 0 -67 11 -68 300
0 187 4 271 18 355 83 514 409 1548 672 2126 277 611 675 1018 1115 1142 451
127 781 167 1745 212 823 39 1233 90 1446 179 108 45 170 56 291 51 74 -3 119
-11 187 -34z m1770 -3548 c81 -34 161 -108 161 -150 0 -7 -9 -22 -20 -33 -26
-26 -89 -26 -138 -1 -20 11 -67 32 -105 46 -69 28 -127 72 -127 97 0 62 126
84 229 41z m-1349 -68 c151 -8 397 -19 545 -25 280 -10 340 -18 489 -66 339
-109 558 -324 621 -608 14 -62 16 -105 12 -200 -3 -67 -6 -238 -7 -380 l-1
-259 -222 6 c-919 28 -1597 55 -1895 77 -70 5 -206 14 -302 20 -96 6 -201 15
-232 20 -175 27 -295 147 -344 342 -21 87 -28 342 -15 523 7 83 14 213 17 290
l5 140 -26 -64 c-45 -114 -104 -167 -119 -106 -13 53 21 149 79 221 l33 40
139 18 c289 38 664 41 1223 11z m-2853 -16 c190 -48 357 -188 456 -386 72
-140 100 -329 86 -578 -15 -288 -21 -295 -266 -295 -446 0 -960 34 -2133 140
l-765 70 -24 27 c-21 24 -23 34 -18 87 8 104 86 255 263 513 95 138 129 168
269 238 156 77 300 119 531 151 97 14 214 17 629 18 375 2 522 5 555 15 120
33 286 33 417 0z m1090 0 c39 -14 87 -63 108 -109 17 -37 17 -39 -6 -85 -13
-26 -40 -62 -61 -81 -33 -30 -45 -34 -91 -34 -116 0 -177 40 -177 116 0 23 4
54 9 67 16 40 73 99 116 118 47 22 63 23 102 8z m-486 -79 c13 -7 19 -21 19
-43 0 -34 21 -112 40 -147 23 -43 85 -102 129 -124 65 -33 123 -44 316 -61
198 -17 245 -28 245 -55 0 -19 -57 -70 -77 -70 -6 0 -37 -13 -68 -30 -136 -71
-320 -19 -509 144 -118 102 -226 259 -226 329 0 44 25 67 72 67 22 0 48 -5 59
-10z m544 -699 c55 -25 113 -91 162 -186 51 -99 76 -170 164 -458 75 -245 110
-326 183 -424 208 -276 569 -420 1174 -468 267 -21 404 -33 550 -47 193 -19
403 6 584 70 242 86 440 255 545 467 66 132 93 253 90 400 -1 85 2 123 17 167
62 189 226 194 323 11 35 -65 192 -537 278 -833 230 -794 327 -1436 311 -2055
-7 -288 -20 -409 -70 -660 -156 -771 -362 -1243 -691 -1584 -119 -123 -175
-167 -395 -307 -253 -160 -301 -190 -403 -245 -100 -54 -105 -54 -160 16 -111
140 -158 339 -192 815 -27 379 -39 450 -125 765 -16 61 -48 196 -70 300 -121
566 -167 743 -245 930 -53 129 -96 211 -166 315 -115 172 -196 245 -539 486
-167 118 -318 257 -363 336 -78 135 -69 286 24 433 l32 50 -32 61 c-17 33 -40
70 -51 82 -39 42 -52 20 -104 -178 -32 -124 -57 -179 -101 -229 -42 -47 -96
-67 -149 -57 -28 5 -36 12 -36 29 0 12 -5 39 -11 60 -8 30 -18 42 -44 53 -45
18 -65 14 -293 -63 -396 -134 -500 -98 -657 222 -108 219 -139 508 -89 816 33
207 120 488 204 664 48 100 139 203 212 239 61 31 80 32 133 7z m-4071 -182
c19 -17 45 -46 56 -65 l22 -34 -21 -29 c-97 -136 -197 -112 -189 45 7 113 60
147 132 83z m8688 -179 c10 -14 24 -59 31 -100 8 -46 26 -96 45 -130 80 -141
164 -414 196 -635 53 -372 60 -1660 11 -2171 -30 -315 -57 -446 -116 -571 -47
-100 -82 -105 -124 -20 -31 65 -59 175 -84 337 -34 219 -37 192 24 228 120 72
212 211 257 387 20 80 23 113 22 305 0 175 -4 237 -22 336 -44 245 -101 342
-145 249 -26 -55 -38 -152 -35 -282 2 -67 0 -119 -4 -115 -11 11 -70 243 -148
582 -107 469 -187 731 -235 776 -64 59 -87 168 -62 300 49 258 244 565 351
551 10 -1 27 -13 38 -27z m-8599 -460 c158 -335 304 -544 478 -683 90 -73 214
-138 309 -163 74 -20 48 -20 930 -15 318 2 401 0 475 -14 203 -36 321 -92 436
-205 l77 -75 6 85 c15 219 139 536 281 720 45 58 173 185 180 179 5 -6 -23
-295 -40 -412 -57 -376 -169 -653 -329 -812 -28 -28 -100 -84 -160 -124 -601
-407 -1027 -1023 -1255 -1811 -109 -380 -147 -672 -161 -1250 -10 -383 -19
-492 -53 -585 -22 -59 -50 -115 -58 -115 -4 0 -52 15 -107 34 -378 128 -769
450 -1162 955 -70 91 -74 99 -110 225 -72 249 -122 509 -154 796 -36 320 -41
450 -39 1115 1 617 7 790 33 974 5 41 15 219 20 395 6 176 15 362 21 414 14
124 51 272 89 348 44 91 153 188 202 181 12 -1 41 -51 91 -157z m-901 -260
c130 -50 165 -138 117 -291 -12 -36 -57 -133 -100 -215 -44 -82 -100 -189
-124 -239 -76 -151 -171 -485 -138 -485 26 0 112 129 183 275 27 55 83 177
125 270 77 173 108 226 121 212 8 -8 17 -195 17 -352 0 -108 -12 -186 -64
-410 -92 -391 -94 -420 -36 -484 59 -65 61 -172 13 -476 -54 -343 -67 -499
-48 -585 13 -54 -5 -533 -22 -624 -27 -136 -69 -196 -140 -196 -30 0 -41 18
-92 150 -70 181 -116 412 -133 670 -19 280 -9 1795 14 2025 34 347 85 525 211
742 22 39 27 39 96 13z m4878 -1710 c510 -46 1022 -240 1463 -552 219 -156
380 -436 443 -773 26 -135 26 -393 1 -520 -33 -167 -104 -353 -174 -457 -17
-24 -41 -68 -55 -98 -68 -150 -161 -167 -374 -68 -141 66 -164 72 -190 54 -26
-19 -24 -98 6 -235 41 -189 14 -325 -83 -424 -92 -94 -196 -109 -322 -46 -80
39 -89 48 -172 165 -211 298 -348 582 -397 826 -37 178 -14 378 59 516 51 98
98 150 210 233 158 117 384 302 453 369 102 102 78 113 -88 40 -208 -91 -344
-119 -615 -126 -156 -5 -260 -1 -470 16 -307 24 -695 38 -695 24 1 -5 46 -36
102 -68 191 -112 366 -260 469 -395 60 -79 132 -225 150 -301 37 -165 -21
-496 -126 -718 -182 -383 -439 -581 -637 -490 -63 29 -139 103 -180 176 -17
29 -43 59 -58 67 -40 21 -78 70 -91 118 -17 62 7 166 75 319 57 129 65 158 44
158 -28 0 -129 -69 -190 -130 -110 -110 -232 -160 -343 -139 -86 16 -148 54
-228 139 -217 230 -301 657 -182 917 87 191 339 417 620 556 276 137 525 208
1200 342 408 81 589 56 1255 -174 129 -45 283 -95 342 -112 115 -32 300 -71
307 -63 7 7 -355 178 -484 229 -740 292 -1416 341 -1990 143 -107 -36 -277
-115 -398 -186 -110 -63 -177 -81 -212 -58 -15 10 -25 26 -25 39 0 35 47 121
95 175 47 52 228 193 336 260 310 195 737 289 1149 252z"/>
<path d="M5564 5405 c-27 -11 -134 -119 -134 -135 0 -14 89 -50 123 -50 47 0
85 33 97 83 17 77 -26 128 -86 102z"/>
<path d="M9803 5989 c-41 -12 -52 -47 -31 -93 9 -17 55 -78 103 -136 107 -127
143 -182 151 -229 13 -76 94 -261 114 -261 18 0 10 122 -16 238 -47 211 -121
395 -186 461 -33 33 -70 39 -135 20z"/>
<path d="M226 3958 c-25 -39 -36 -108 -36 -236 0 -133 18 -248 52 -322 11 -25
28 -72 38 -106 23 -77 48 -126 63 -121 29 9 40 101 41 342 1 228 0 243 -22
300 -31 79 -68 142 -92 155 -26 14 -27 13 -44 -12z"/>
<path d="M5980 2625 c-8 -2 -37 -7 -65 -10 l-49 -7 39 -24 c59 -35 137 -49
201 -35 113 26 92 73 -33 77 -43 2 -85 1 -93 -1z"/>
<path d="M4595 2606 c-37 -12 -186 -80 -245 -111 -64 -35 1 -79 100 -69 63 7
217 64 274 103 51 34 64 55 47 75 -17 20 -117 21 -176 2z"/>
</g>
</svg>
